<svg width="19" height="19" viewBox="0 0 19 19" fill="none" xmlns="http://www.w3.org/2000/svg">
<circle cx="9.5" cy="9.5" r="9.5" fill="#D9D9D9"/>
<path d="M12.433 5.05567C12.2776 4.97089 12.0938 4.98502 11.9525 5.08394L8.23604 7.58515H5.46633C5.21197 7.58515 5 7.79712 5 8.05148V12.1213C5 12.3756 5.21197 12.5876 5.46633 12.5876H8.25017L11.9667 15.0888C12.0373 15.1453 12.1362 15.1736 12.221 15.1736C12.2917 15.1736 12.3765 15.1595 12.433 15.1171C12.5884 15.0323 12.6732 14.8768 12.6732 14.7073V5.46548C12.6732 5.2959 12.5884 5.14046 12.433 5.05567ZM5.91853 8.51781H7.91102V11.6691H5.91853V8.51781ZM11.7547 13.8453L8.84368 11.881V8.29171L11.7547 6.32748V13.8453Z" fill="black"/>
</svg>
